<?xml version="1.0" encoding="UTF-8"?>
<svg id="design" xmlns="http://www.w3.org/2000/svg" version="1.1" viewBox="0 0 752.41 752.41">
  <!-- Generator: Adobe Illustrator 30.0.0, SVG Export Plug-In . SVG Version: 2.1.1 Build 123)  -->
  <path d="M387.2,569.35c-6.47,0-12.26-4.31-14.4-10.73-4.53-13.55-7.05-27.93-7.5-42.72-.76-24.98,4.76-49.89,15.99-72.39-5.96-1.83-11.93-3.7-17.75-5.52l-.11-.03c-37.24,26.38-82.86,41.06-128.71,41.38-.85,0-1.71,0-2.59,0-17.1,0-69.15,0-76.66-37.73-3-15.05,1.76-31,13.06-43.76,9.9-11.18,25.03-17.84,44.95-19.79,3.68-.36,7.59-.54,11.62-.54,12.93,0,25.74,1.82,38.82,3.84,14.48,2.24,29.88,5.51,47.06,9.98,15.99,4.17,31.75,8.9,46.5,13.46,0,0,0,0,0,0,11.95-10.03,21.05-19.64,27.81-29.38,4.27-6.15,7.4-11.67,9.54-16.88,1.2-2.91,2.25-6.16,3.14-9.65.71-2.82,1.2-5.39,1.37-7.23.04-.48.08-.96.11-1.44-6.9,2.52-14.35,4.74-22.25,6.62-5.91,1.41-13.7,3.04-21.62,3.04-11.23,0-20.26-3.39-26.84-10.07-13.29-13.48-11.4-35.31-1.91-48.63,8.04-11.27,20.73-18.97,34.82-21.14,3.29-.51,6.54-.76,9.68-.76,11.73,0,22.35,3.54,31.56,10.53,6.04,4.58,11.18,10.18,15.32,16.69.19-.16.38-.32.57-.47,10.14-8.52,17.2-18.73,20.43-29.54,3.68-12.33,2.16-24.5-4.05-32.56-5.63-7.31-15.32-12.76-28.81-16.2-5.87-1.5-12.44-2.29-18.98-2.29-4.88,0-9.58.43-13.98,1.27-23.53,4.52-42.2,18.3-52.57,38.8-6.89,13.63-9.64,30.25-7.55,45.67,2.29,7.16,4.48,14.44,6.52,21.64,1.99,7.03-1.68,14.62-8.55,17.65-1.75.78-3.79,1.19-5.87,1.19-5.19,0-9.82-2.39-12.26-6.21l-.72.3-1.45-4.99c-2.8-6.81-4.91-13.8-6.25-20.79-9.35-29.27-20.87-57.9-34.25-85.08l-1.57-3.18.35-.29c-1.68-6.61.87-13.27,6.78-16.72,2.2-1.29,4.8-1.97,7.52-1.97,5.76,0,10.76,2.92,13.07,7.61,5.66,11.5,11.03,23.26,16.02,35.08,5.93-13.11,14.31-24.6,24.59-33.64,18.95-16.66,44.55-26.22,70.22-26.22,4.24,0,8.51.26,12.68.78,16.86,2.08,31.52,7.31,43.56,15.54,15.78,10.8,25.16,26.51,27.11,45.44,1.6,15.56-2.26,31.58-11.15,46.33-7.5,12.42-18.16,23.46-30.95,32.06,2.54,19.25-1.12,48.07-30.07,80.81-2.57,2.91-5.27,5.78-8.05,8.57,2.61.8,5.03,1.54,7.34,2.24,14.27-18.1,32.58-32.68,53.13-42.28,21.08-9.84,43.1-14.83,65.45-14.83,6.94,0,13.91.5,20.73,1.49,17.61,2.54,32.63,9.16,43.42,19.15,11.75,10.87,18.52,27.35,17.25,42-1.39,15.78-10.41,29.26-24.76,36.96-10.98,5.9-23.8,8.91-41.58,9.75-3.95.19-8.01.28-12.06.28-24.13,0-50.2-3.31-79.67-10.13-9.13-2.11-18.76-4.59-29.33-7.56-16.52,30.12-19.83,65.66-9,98.07,1.19,3.58.81,7.49-1.08,11.03-2,3.75-5.39,6.51-9.28,7.58-1.28.35-2.59.53-3.9.53ZM185.41,437.75c4.08,7.11,16.09,9.33,24.85,10.39,7.47.9,15.1,1.35,22.7,1.35,32.45,0,64.22-7.97,92.53-23.12-18.72-5.46-40-11.1-62.24-14.93-11.43-1.97-24.95-3.98-38.53-3.98-1.26,0-2.53.02-3.79.05-7.99.22-22.58,1.92-30.64,10.74-.94,1.02-2.41,3.02-3.75,5.62-.8,1.54-1.19,2.57-1.82,5.24-.15.64-.28,1.18-.36,1.67v.31c.01.46.01.92,0,1.38,0,.72,0,1.4.03,2.05.11.51.21,1,.34,1.46.07.2.2.53.32.84.11.3.23.61.34.93ZM429.46,426.37c25.89,6.9,46.67,10.8,66.59,12.54,9.39.82,17.19,1.2,24.52,1.2s13.67-.37,19.84-1.14h0c.36-.07.67-.12.9-.15.55-.08.89-.13,1.12-.16.75-.13,1.44-.25,2.12-.39,1.46-.28,2.92-.61,4.37-.98,1.52-.39,2.89-.79,4.19-1.22.69-.23,1.37-.47,2.05-.72l.07-.03c.34-.14.61-.25.86-.34,2.34-1.07,5.09-2.7,6.14-3.52,1.12-.87,2.9-2.78,3.41-3.56,2.17-3.35,3.02-7.18,2.37-10.8-.97-5.37-3.1-9.62-6.7-13.38-7.22-7.53-18.84-12.02-34.55-13.33-3.35-.28-6.76-.42-10.12-.42-22.88,0-45.49,6.53-65.41,18.89-7.94,4.92-15.23,10.8-21.77,17.52ZM353.77,320.1c.6.04,1.27.06,2.06.06,2.91,0,4.26-.17,6.81-.64,6.43-1.2,13.25-2.95,20.84-5.36,3-.95,5.88-1.97,8.63-3.03-2.36-3.45-5.48-6.51-8.68-8.51l-.7-.44q-1.97-1.23-3.98-1.85l-.28-.09c-.74-.23-1.53-.41-2.37-.61-.41-.09-.82-.19-1.23-.29-.12-.02-.56-.1-.56-.1-.13-.01-.27-.02-.4-.03-1.72-.1-2.86-.14-3.83-.14-2.73,0-4.37.32-8.74,1.72-.18.06-.43.15-.65.23-.15.05-.29.1-.43.15-.29.14-.58.28-.87.43-.99.5-1.86.99-2.66,1.48-.33.2-.65.42-.98.64,0,0-.62.41-.64.42-.75.64-1.4,1.23-1.96,1.8-2.18,2.21-3.66,4.88-4.06,7.32-.68,4.23.48,5.55,1.57,6.15.31.08.67.18,1.11.31l.33.09c.21.05.47.11.74.17.18.02.95.11.95.11Z"/>
  <path d="M254.46,222.9c16.85,34.26,30.45,69.99,40.82,106.74,6.36-2.68,12.71-5.36,19.08-8.04-9.37-20.96-8.01-47.44,2.45-68.11,11.25-22.24,31.24-36.48,55.73-41.18,10.96-2.11,23.79-1.76,34.92,1.08,11.2,2.86,23.77,8.1,31.26,17.82,8.09,10.5,8.31,24.8,4.8,36.59-3.71,12.43-11.85,23.3-21.85,31.7-10.61,8.91-23.74,14.79-36.84,18.96-6.99,2.22-14.16,4.16-21.38,5.5-2.8.52-4.43.71-7.63.72-.81,0-1.62-.02-2.42-.07-.1,0-2.02-.26-.76-.04-.58-.1-1.14-.23-1.7-.37-.35-.09-2.45-.74-1.29-.26-4.6-1.88-5.9-5.89-5.02-11.36.58-3.61,2.67-7.1,5.3-9.76.8-.81,1.65-1.57,2.52-2.29,1.28-1.05-1.16.76.23-.14.55-.36,1.09-.73,1.65-1.08.98-.61,2-1.17,3.03-1.69.59-.3,1.2-.59,1.81-.85-1.37.57.19-.03.78-.22,6.04-1.93,7.81-2.16,14.19-1.79.5.03,1.01.08,1.51.14-1.82-.23-.1,0,.22.09,1.31.32,2.62.58,3.91.98,3.09.95,2.73.81,6.01,2.86,4.23,2.65,8.04,6.65,10.7,10.84,6.24,9.84,8.34,20.62,7.29,32.43-.19,2.09-.7,4.84-1.48,7.94-.88,3.47-1.98,6.95-3.34,10.26-2.57,6.24-6.15,12.18-10.01,17.73-7.91,11.39-18.02,21.37-28.61,30.26-41.34,34.68-97.25,50.77-150.63,44.35-10.77-1.3-23.96-3.99-28.65-13.42.61,1.24-.5-1.44-.64-1.93-.19-.67-.33-1.36-.48-2.04-.35-1.71.05,1.4-.04-.35-.06-1.24-.03-2.47-.04-3.71-.03-1.9.03-1.02-.04-.42.11-.89.31-1.78.52-2.65.7-2.99,1.21-4.36,2.2-6.28,1.41-2.73,3.07-5.11,4.43-6.59,7.86-8.6,21.33-11.85,33.83-12.2,14.44-.41,29.01,1.55,43.21,4,60.39,10.41,117.22,34.56,176.78,48.33,29.58,6.84,60.1,11.18,90.51,9.74,13.61-.65,27.51-2.69,39.66-9.22,12.75-6.85,21.14-18.93,22.4-33.39,1.22-14.04-5.62-28.87-15.82-38.3-11.24-10.39-26.05-15.84-41.01-18-28.6-4.14-57.51.77-83.63,12.97-52.3,24.42-84.87,79.14-83.12,136.64.42,14.05,2.82,28.11,7.27,41.44,1.78,5.34,7.19,8.84,12.84,7.29,5.22-1.43,9.08-7.47,7.29-12.84-18.05-54.03,2.68-116.23,51.67-146.61,23.52-14.59,50.7-21.43,78.28-19.13,13.1,1.1,27.89,4.76,37.42,14.7,4.18,4.36,6.76,9.46,7.88,15.7.81,4.53-.1,9.53-3.03,14.05-.83,1.27-2.97,3.53-4.41,4.65-1.57,1.22-5.06,3.21-7.59,4.31,1.12-.49-.62.22-.69.25-.73.27-1.46.53-2.19.77-1.48.49-2.99.93-4.5,1.31s-3.07.74-4.62,1.03c-.77.15-1.56.29-2.33.42.08-.02-3.24.47-1.91.3-14.98,1.88-30.51,1.29-45.52-.02-31.47-2.74-62.27-10.82-92.47-19.79-31.14-9.24-61.92-19.71-93.36-27.9-15.38-4-30.92-7.46-46.62-9.89-16.16-2.5-32.95-4.87-49.31-3.27-15.34,1.5-31.47,6.38-42.02,18.29-9.6,10.84-14.89,25.45-12.01,39.9,6.4,32.13,48.88,34.28,74.81,34.1,59.87-.42,120.66-26.21,160.54-71.31,20.49-23.17,35.18-53.34,27.57-84.79-3.37-13.96-11.17-26.64-22.63-35.33-11.46-8.69-24.43-10.98-37.84-8.91-12.71,1.95-24.36,8.81-31.84,19.3-8.85,12.42-9.7,31.56,1.45,42.87,11.67,11.85,29.62,9.3,44.21,5.81,15.41-3.68,30.75-9,44.48-17.02,26.83-15.7,49.03-45.16,45.68-77.68-1.83-17.71-10.51-32.16-25.18-42.19-12.3-8.41-26.89-12.98-41.57-14.79-28.33-3.5-57.94,5.51-79.38,24.36-21.38,18.8-33,47.81-32.84,76.05.08,14.23,3.28,27.94,9.07,40.89,2.09,4.68,8.73,6.16,13.03,4.26,4.68-2.06,7.49-7.2,6.04-12.31-10.85-38.46-25.28-75.87-42.92-111.73-2.48-5.06-9.66-6.44-14.28-3.74-5.16,3.01-6.24,9.2-3.74,14.28h0l-.05.05Z"/>
  <path d="M376.71,674.28c-42.49,0-85.34-9.2-123.93-26.61-53.73-24.24-100.43-65.71-131.51-116.76-32.05-52.65-47.08-115.57-42.32-177.16,4.77-61.73,28.22-119.73,67.8-167.74,37.84-45.9,90.35-80.18,147.83-96.54,26.38-7.5,53.85-11.3,81.66-11.3,35.14,0,69.33,5.99,101.61,17.79,57.11,20.89,106.1,58.25,141.65,108.03,35.22,49.31,54.7,110.46,54.85,172.19v.23c-.03,14.88-1.25,30.4-3.63,46.11-8.95,59.07-37.02,115.83-79.03,159.82-42.94,44.96-95.28,73.9-155.56,86.04-19.49,3.92-39.49,5.91-59.42,5.91ZM376.83,108.04c-38.75,0-77.06,8.13-110.8,23.51-12.62,5.75-24.91,12.51-36.53,20.09-11.78,7.68-20.83,14.6-31.24,23.87-20.9,18.62-37.28,38.26-51.56,61.81-29.11,48.04-42.23,103.44-37.94,160.23,1.09,14.4,3.03,26.69,6.48,41.1,3.25,13.55,7.55,26.94,12.78,39.81l.31.75q.43,1.07.87,2.07l.32.73c.72,1.66,1.47,3.33,2.22,4.98,1.32,2.9,2.75,5.86,4.23,8.82,3.08,6.14,6.42,12.21,9.91,18.04,3.56,5.96,7.42,11.9,11.48,17.65,4.17,5.92,6.96,9.56,11.45,14.99,17.48,21.13,37.6,39.25,59.78,53.83,23.67,15.56,47.18,26.36,74.01,33.99,24.57,6.99,47.78,10.24,73.03,10.24,3.6,0,7.29-.07,10.99-.2,28.4-1.04,55.41-6.37,82.59-16.32,24.06-8.8,49.09-22.63,70.48-38.93.67-.52,1.8-1.4,3.4-2.68,1.27-1.01,2.51-2.03,3.75-3.06,2.39-1.98,4.86-4.11,7.35-6.32,5.23-4.66,10.32-9.55,15.11-14.52,4.68-4.84,9.28-9.96,13.66-15.21,1.21-1.45,2.47-2.99,3.74-4.59.45-.56.89-1.12,1.33-1.68l.36-.46c.07-.1.18-.24.33-.43,1.98-2.59,3.96-5.29,6.06-8.24,15.9-22.46,28.16-46.68,36.41-72,9-27.62,13.22-54.2,13.28-83.65v-2.26c-.06-6.77-.34-13.34-.82-19.56-.28-3.58-.6-6.91-.97-10.18-.42-3.7-.52-4.48-1.14-8.41-2.19-14.07-5.49-28.07-9.82-41.63-4.41-13.82-8.82-24.67-15.23-37.45-12.31-24.55-27.38-45.99-46.06-65.56-38.05-39.84-86.64-66.76-140.53-77.84-17.14-3.53-35-5.31-53.08-5.31Z"/>
  <path d="M648.97,376.26c-.06,29.56-4.23,56.57-13.51,85.04-8.4,25.79-20.74,50.23-37.02,73.22-2.01,2.83-4.06,5.62-6.16,8.38-1.26,1.64,1.48-1.86-.71.92-.45.58-.9,1.14-1.36,1.72-1.25,1.57-2.52,3.12-3.81,4.66-4.44,5.32-9.06,10.47-13.87,15.45-4.93,5.11-10.06,10.03-15.36,14.76-2.45,2.18-4.93,4.32-7.46,6.42-1.26,1.05-2.53,2.09-3.82,3.11-1.64,1.31-2.79,2.21-3.49,2.75-21.92,16.7-47.12,30.59-71.66,39.57-27.73,10.15-55.38,15.55-83.97,16.59-29.85,1.09-56.93-2.11-85.42-10.2-27.17-7.73-51.23-18.77-75.25-34.56-22.49-14.78-42.94-33.16-60.78-54.72-4.52-5.46-7.35-9.16-11.66-15.27-4.11-5.83-8.01-11.81-11.66-17.93-3.58-5.98-6.94-12.1-10.07-18.34-1.48-2.96-2.92-5.96-4.3-8.97-.76-1.67-1.52-3.37-2.26-5.06-.91-2.1-.63-1.43-1.53-3.64-5.34-13.13-9.69-26.67-12.99-40.45-3.54-14.76-5.5-27.34-6.6-41.81-4.34-57.48,8.91-113.92,38.58-162.9,14.41-23.76,31.22-43.95,52.41-62.83,10.57-9.42,19.72-16.42,31.77-24.28,11.84-7.72,24.26-14.55,37.13-20.42,50.96-23.23,111.61-29.83,166.65-18.51,54.93,11.3,104.34,38.79,142.88,79.15,18.98,19.88,34.18,41.44,46.82,66.65,6.48,12.92,11,24,15.49,38.1,4.41,13.82,7.75,27.97,9.98,42.31.61,3.93.73,4.78,1.16,8.59.4,3.45.72,6.89.99,10.35.58,7.38.84,14.78.85,22.19.03,13.42,20.89,13.45,20.87,0-.13-60.45-18.83-120.43-54.01-169.68-35.18-49.25-83.41-85.88-139.54-106.42-57.43-21.01-121.7-23.11-180.49-6.39-56.61,16.11-108.14,49.64-145.59,95.07-38.66,46.9-62.09,104.59-66.78,165.23-4.69,60.67,10.03,122.49,41.68,174.48,30.46,50.05,76.06,90.89,129.52,115,56.48,25.48,119.84,32.62,180.6,20.39,60.76-12.23,112.28-41.88,153.2-84.73,41.08-43.02,68.91-98.51,77.84-157.39,2.29-15.09,3.55-30.28,3.58-45.55.03-13.43-20.84-13.45-20.87,0l-.02-.02Z"/>
</svg>