<?xml version="1.0" encoding="UTF-8"?>
<svg id="design" xmlns="http://www.w3.org/2000/svg" version="1.1" viewBox="0 0 752.41 752.41">
  <!-- Generator: Adobe Illustrator 30.0.0, SVG Export Plug-In . SVG Version: 2.1.1 Build 123)  -->
  <path d="M240.9,205.82c18.73,38.08,33.84,77.78,45.37,118.63,7.07-2.98,14.13-5.96,21.2-8.94-10.41-23.29-8.9-52.72,2.72-75.7,12.5-24.72,34.72-40.54,61.94-45.77,12.18-2.34,26.44-1.96,38.81,1.2,12.45,3.18,26.42,9,34.74,19.8,8.99,11.67,9.24,27.56,5.33,40.67-4.12,13.81-13.17,25.9-24.28,35.23-11.79,9.9-26.38,16.44-40.94,21.07-7.77,2.47-15.74,4.62-23.76,6.11-3.11.58-4.92.79-8.48.8-.9,0-1.8-.02-2.69-.08-.11,0-2.25-.29-.84-.05-.64-.11-1.27-.26-1.89-.41-.39-.1-2.72-.82-1.43-.29-5.11-2.09-6.56-6.55-5.58-12.63.65-4.01,2.97-7.89,5.89-10.85.89-.9,1.83-1.74,2.8-2.55,1.42-1.17-1.29.85.26-.16.61-.4,1.21-.81,1.83-1.2,1.09-.68,2.22-1.3,3.37-1.88.66-.33,1.33-.66,2.01-.94-1.52.63.21-.03.87-.24,6.71-2.15,8.68-2.4,15.77-1.99.56.03,1.12.09,1.68.16-2.02-.26-.11.01.25.1,1.46.36,2.91.64,4.35,1.09,3.43,1.06,3.03.9,6.68,3.18,4.7,2.94,8.94,7.39,11.89,12.05,6.93,10.94,9.27,22.92,8.1,36.04-.21,2.32-.78,5.38-1.65,8.82-.98,3.86-2.2,7.72-3.71,11.4-2.86,6.93-6.84,13.54-11.12,19.7-8.79,12.66-20.03,23.75-31.8,33.63-45.94,38.54-108.08,56.43-167.41,49.29-11.97-1.44-26.63-4.43-31.84-14.92.68,1.38-.56-1.6-.71-2.14-.21-.75-.37-1.51-.53-2.27-.39-1.9.06,1.56-.04-.39-.07-1.38-.03-2.74-.05-4.12-.03-2.11.03-1.13-.05-.47.12-.99.35-1.98.58-2.95.78-3.32,1.35-4.85,2.45-6.98,1.57-3.03,3.41-5.68,4.92-7.32,8.73-9.56,23.71-13.17,37.6-13.56,16.05-.46,32.24,1.72,48.02,4.44,67.12,11.57,130.28,38.41,196.47,53.71,32.87,7.6,66.79,12.43,100.59,10.82,15.13-.72,30.57-2.99,44.08-10.25,14.17-7.61,23.49-21.04,24.9-37.11,1.36-15.6-6.25-32.09-17.58-42.57-12.49-11.55-28.95-17.6-45.58-20-31.78-4.6-63.92.86-92.95,14.41-58.13,27.14-94.32,87.95-92.38,151.86.47,15.61,3.13,31.24,8.08,46.05,1.98,5.94,7.99,9.82,14.27,8.1,5.8-1.59,10.09-8.3,8.1-14.27-20.06-60.05,2.98-129.17,57.42-162.94,26.14-16.22,56.35-23.82,87-21.26,14.56,1.22,31,5.29,41.59,16.34,4.65,4.85,7.51,10.51,8.76,17.45.9,5.03-.11,10.59-3.37,15.61-.92,1.41-3.3,3.92-4.9,5.17-1.74,1.36-5.62,3.57-8.43,4.79,1.25-.54-.69.25-.77.28-.81.3-1.62.59-2.43.86-1.65.55-3.32,1.03-5,1.46s-3.41.82-5.13,1.15c-.86.17-1.73.32-2.59.47.09-.02-3.6.52-2.12.33-16.65,2.09-33.91,1.43-50.59-.02-34.97-3.05-69.21-12.03-102.77-21.99-34.61-10.27-68.82-21.91-103.76-31.01-17.09-4.45-34.36-8.29-51.81-10.99-17.96-2.78-36.62-5.41-54.8-3.63-17.05,1.67-34.97,7.09-46.7,20.33-10.67,12.05-16.55,28.28-13.35,44.34,7.11,35.71,54.32,38.1,83.14,37.9,66.54-.47,134.1-29.13,178.42-79.25,22.77-25.75,39.1-59.28,30.64-94.23-3.75-15.51-12.41-29.61-25.15-39.27s-27.15-12.2-42.06-9.9c-14.13,2.17-27.07,9.79-35.39,21.45-9.84,13.8-10.78,35.07,1.61,47.64,12.97,13.17,32.92,10.34,49.13,6.46,17.13-4.09,34.18-10,49.43-18.92,29.82-17.45,54.49-50.19,50.77-86.33-2.03-19.68-11.68-35.74-27.98-46.89-13.67-9.35-29.89-14.43-46.2-16.44-31.49-3.89-64.39,6.12-88.22,27.07-23.76,20.89-36.68,53.14-36.5,84.52.09,15.82,3.65,31.05,10.08,45.44,2.32,5.2,9.7,6.85,14.48,4.74,5.2-2.29,8.32-8,6.71-13.68-12.06-42.74-28.1-84.32-47.7-124.17-2.76-5.62-10.74-7.16-15.87-4.16-5.73,3.35-6.93,10.23-4.16,15.87h0Z"/>
  <path d="M679.35,376.27c-.07,32.85-4.7,62.87-15.01,94.51-9.34,28.66-23.05,55.83-41.14,81.37-2.23,3.14-4.51,6.25-6.85,9.31-1.4,1.82,1.64-2.07-.79,1.02-.5.64-1,1.27-1.51,1.91-1.39,1.74-2.8,3.47-4.23,5.18-4.93,5.91-10.07,11.64-15.42,17.17-5.48,5.68-11.18,11.15-17.07,16.4-2.72,2.42-5.48,4.8-8.29,7.13-1.4,1.17-2.81,2.32-4.24,3.46-1.82,1.46-3.1,2.46-3.88,3.06-24.36,18.56-52.37,34-79.64,43.98-30.82,11.28-61.55,17.28-93.32,18.44-33.18,1.21-63.27-2.34-94.93-11.34-30.2-8.59-56.94-20.86-83.63-38.41-24.99-16.43-47.72-36.85-67.55-60.82-5.02-6.07-8.17-10.18-12.96-16.97-4.57-6.48-8.9-13.13-12.96-19.93-3.98-6.65-7.71-13.45-11.19-20.38-1.65-3.29-3.25-6.62-4.78-9.97-.85-1.86-1.69-3.74-2.51-5.62-1.01-2.33-.7-1.59-1.7-4.05-5.94-14.59-10.77-29.64-14.44-44.96-3.93-16.4-6.11-30.38-7.33-46.47-4.82-63.88,9.9-126.61,42.88-181.04,16.01-26.41,34.7-48.85,58.25-69.83,11.75-10.47,21.92-18.25,35.31-26.98,13.16-8.58,26.96-16.17,41.26-22.69,56.64-25.82,124.04-33.15,185.21-20.57,61.05,12.56,115.96,43.11,158.79,87.96,21.09,22.09,37.99,46.06,52.04,74.07,7.2,14.36,12.22,26.67,17.22,42.34,4.9,15.36,8.61,31.09,11.09,47.02.68,4.37.81,5.31,1.29,9.55.44,3.83.8,7.66,1.1,11.5.64,8.2.93,16.43.95,24.66.03,14.92,23.22,14.95,23.19,0-.14-67.18-20.93-133.84-60.03-188.58s-92.7-95.45-155.08-118.27c-63.83-23.35-135.25-25.68-200.59-7.1-62.92,17.9-120.18,55.17-161.81,105.66-42.97,52.12-69.01,116.24-74.22,183.63-5.21,67.43,11.15,136.13,46.32,193.91,33.85,55.62,84.53,101.01,143.94,127.81,62.77,28.32,133.19,36.25,200.72,22.66s124.78-46.55,170.26-94.17c45.66-47.81,76.59-109.48,86.51-174.92,2.54-16.77,3.95-33.65,3.98-50.62.03-14.93-23.16-14.95-23.19,0Z"/>
</svg>