<?xml version="1.0" encoding="UTF-8"?>
<svg id="design" xmlns="http://www.w3.org/2000/svg" version="1.1" viewBox="0 0 2000 500">
  <!-- Generator: Adobe Illustrator 30.0.0, SVG Export Plug-In . SVG Version: 2.1.1 Build 123)  -->
  <path d="M61.17,232.69c-17.12,0-31.05-13.93-31.05-31.05V73.61c0-17.12,13.93-31.05,31.05-31.05h391.74c17.13,0,31.06,13.93,31.06,31.05v128.03c0,17.12-13.93,31.05-31.05,31.05H61.17ZM69.08,78.61c-1.61,0-2.92,1.31-2.92,2.92v112.19c0,1.61,1.31,2.92,2.92,2.92h375.91c1.61,0,2.92-1.31,2.92-2.92v-112.19c0-1.61-1.31-2.92-2.92-2.92H69.08Z"/>
  <path d="M452.91,47.56H61.17c-14.39,0-26.05,11.66-26.05,26.05v128.03c0,14.39,11.66,26.05,26.05,26.05h391.75c14.39,0,26.05-11.66,26.05-26.05V73.61c0-14.39-11.66-26.05-26.05-26.05h0ZM452.91,193.72c0,4.37-3.54,7.92-7.92,7.92H69.08c-4.37,0-7.92-3.54-7.92-7.92v-112.19c0-4.37,3.54-7.92,7.92-7.92h375.91c4.37,0,7.92,3.54,7.92,7.92v112.19Z"/>
  <path d="M1539.44,457.15c-17.12,0-31.05-13.93-31.05-31.05V73.6c0-17.12,13.93-31.05,31.05-31.05h280.45c9.94,0,18.03,8.09,18.03,18.03s-8.09,18.03-18.03,18.03h-272.45c-1.65,0-3,1.35-3,3v336.47c0,1.65,1.35,3,3,3h272.45c9.94,0,18.03,8.09,18.03,18.03s-8.09,18.03-18.03,18.03h-280.45Z"/>
  <path d="M1547.44,73.61h272.45c7.19,0,13.03-5.83,13.03-13.03s-5.83-13.03-13.03-13.03h-280.45c-14.39,0-26.05,11.66-26.05,26.05v352.49c0,14.39,11.66,26.05,26.05,26.05h280.45c7.19,0,13.03-5.83,13.03-13.03s-5.83-13.03-13.03-13.03h-272.45c-4.42,0-8-3.58-8-8V81.61c0-4.42,3.58-8,8-8Z"/>
  <path d="M1031.19,151.1c-9.94,0-18.03-8.09-18.03-18.03s8.09-18.03,18.03-18.03h312.58c9.94,0,18.03,8.09,18.03,18.03s-8.09,18.03-18.03,18.03h-312.58Z"/>
  <path d="M1343.77,120.04h-312.58c-7.19,0-13.03,5.83-13.03,13.03s5.83,13.03,13.03,13.03h312.58c7.19,0,13.03-5.83,13.03-13.03s-5.83-13.03-13.03-13.03Z"/>
  <path d="M1031.19,78.62c-9.94,0-18.03-8.09-18.03-18.03s8.09-18.03,18.03-18.03h312.58c9.94,0,18.03,8.09,18.03,18.03s-8.09,18.03-18.03,18.03h-312.58Z"/>
  <path d="M1343.77,47.56h-312.58c-7.19,0-13.03,5.83-13.03,13.03s5.83,13.03,13.03,13.03h312.58c7.19,0,13.03-5.83,13.03-13.03s-5.83-13.03-13.03-13.03Z"/>
  <path d="M257.04,457.15c-9.94,0-18.03-8.09-18.03-18.03v-136.05H48.14c-9.94,0-18.03-8.09-18.03-18.03s8.09-18.03,18.03-18.03h417.8c9.94,0,18.03,8.09,18.03,18.03s-8.09,18.03-18.03,18.03h-190.87v136.05c0,9.94-8.09,18.03-18.03,18.03Z"/>
  <path d="M465.94,272.01H48.14c-7.19,0-13.03,5.83-13.03,13.03s5.83,13.03,13.03,13.03h195.87v141.05c0,7.19,5.83,13.03,13.03,13.03h0c7.19,0,13.03-5.83,13.03-13.03v-141.05h195.87c7.19,0,13.03-5.83,13.03-13.03s-5.83-13.03-13.03-13.03h0Z"/>
  <path d="M1415.65,462.15c-8.24,0-14.94-6.7-14.94-14.94V52.8c0-8.24,6.7-14.94,14.94-14.94h6.17c8.24,0,14.94,6.7,14.94,14.94v184h41.05v.87c5.79,2.06,9.94,7.59,9.94,14.08v6.17c0,8.24-6.7,14.94-14.94,14.94h-36.05v174.34c0,8.24-6.7,14.94-14.94,14.94h-6.17Z"/>
  <path d="M1472.81,241.8h-41.05V52.8c0-5.49-4.45-9.94-9.94-9.94h-6.17c-5.49,0-9.94,4.45-9.94,9.94v394.4c0,5.49,4.45,9.94,9.94,9.94h6.17c5.49,0,9.94-4.45,9.94-9.94v-179.34h41.05c5.49,0,9.94-4.45,9.94-9.94v-6.17c0-5.49-4.45-9.94-9.94-9.94h0Z"/>
  <path d="M1900.87,452.46c-9.94,0-18.03-8.09-18.03-18.03V55.88c0-9.94,8.09-18.03,18.03-18.03s18.03,8.09,18.03,18.03v180.92h32.96c9.94-.01,18.03,8.08,18.03,18.02s-8.09,18.03-18.03,18.03h-32.96v161.57c0,9.94-8.09,18.03-18.03,18.03Z"/>
  <path d="M1951.86,241.8h-37.96V55.88c0-7.19-5.83-13.03-13.03-13.03s-13.03,5.83-13.03,13.03v378.54c0,7.19,5.83,13.03,13.03,13.03s13.03-5.83,13.03-13.03v-166.57h37.96c7.19,0,13.03-5.83,13.03-13.03h0c0-7.19-5.83-13.03-13.03-13.03h0Z"/>
  <path d="M945.68,232.7c-9.94,0-18.03-8.09-18.03-18.03V81.62c0-1.65-1.35-3-3-3h-394.96c-9.94,0-18.03-8.09-18.03-18.03s8.09-18.03,18.03-18.03h402.96c17.13,0,31.06,13.93,31.06,31.05v141.06c0,9.94-8.09,18.03-18.03,18.03Z"/>
  <path d="M932.65,47.56h-402.96c-7.19,0-13.03,5.83-13.03,13.03s5.83,13.03,13.03,13.03h394.96c4.42,0,8,3.58,8,8v133.05c0,7.19,5.83,13.03,13.03,13.03h0c7.19,0,13.03-5.83,13.03-13.03V73.61c0-14.39-11.66-26.05-26.05-26.05h-.01Z"/>
  <path d="M736.77,457.15c-9.94,0-18.03-8.09-18.03-18.03v-136.05h-190.87c-9.94,0-18.03-8.09-18.03-18.03s8.09-18.03,18.03-18.03h417.8c9.94,0,18.03,8.09,18.03,18.03s-8.09,18.03-18.03,18.03h-190.87v136.05c0,9.94-8.09,18.03-18.03,18.03Z"/>
  <path d="M945.67,272.01h-417.8c-7.19,0-13.03,5.83-13.03,13.03s5.83,13.03,13.03,13.03h195.87v141.05c0,7.19,5.83,13.03,13.03,13.03h0c7.19,0,13.03-5.83,13.03-13.03v-141.05h195.87c7.19,0,13.03-5.83,13.03-13.03s-5.83-13.03-13.03-13.03h0Z"/>
  <path d="M1182.2,458.65c-47.7,0-92.6-13.92-126.43-39.21-34.29-25.63-53.17-59.85-53.17-96.36s18.88-70.73,53.17-96.36c33.83-25.29,78.73-39.21,126.43-39.21s92.6,13.92,126.43,39.21c34.29,25.63,53.17,59.85,53.17,96.36s-18.88,70.73-53.17,96.36c-33.83,25.28-78.73,39.21-126.43,39.21ZM1182.2,224.05c-20.42,0-40.19,2.97-58.74,8.83-17.5,5.54-33.09,13.37-46.33,23.26-24.84,18.56-38.53,42.34-38.53,66.94s13.68,48.37,38.53,66.94c13.26,9.91,28.85,17.74,46.33,23.26,18.53,5.86,38.29,8.83,58.74,8.83s40.19-2.97,58.74-8.83c17.5-5.54,33.09-13.37,46.33-23.26,24.84-18.56,38.52-42.34,38.52-66.94s-13.68-48.38-38.52-66.94c-13.26-9.91-28.85-17.74-46.33-23.26-18.52-5.86-38.29-8.83-58.74-8.83Z"/>
  <path d="M1182.2,192.59c-96.43,0-174.6,58.43-174.6,130.49s78.17,130.49,174.6,130.49,174.6-58.43,174.6-130.49-78.17-130.49-174.6-130.49ZM1290.24,394.12c-13.7,10.24-29.79,18.32-47.81,24.02-19.02,6.01-39.28,9.06-60.23,9.06s-41.21-3.04-60.23-9.06c-18.02-5.69-34.11-13.78-47.81-24.02-26.15-19.55-40.56-44.78-40.56-71.03s14.4-51.48,40.56-71.03c13.7-10.24,29.79-18.32,47.81-24.02,19.02-6.01,39.28-9.06,60.23-9.06s41.21,3.04,60.23,9.06c18.02,5.69,34.11,13.78,47.81,24.02,26.15,19.55,40.56,44.78,40.56,71.03s-14.4,51.48-40.56,71.03Z"/>
</svg>