<?xml version="1.0" encoding="UTF-8"?>
<svg id="design" xmlns="http://www.w3.org/2000/svg" version="1.1" viewBox="0 0 2000 500">
  <!-- Generator: Adobe Illustrator 30.0.0, SVG Export Plug-In . SVG Version: 2.1.1 Build 123)  -->
  <path d="M452.91,56.3H61.17c-14.39,0-26.05,11.66-26.05,26.05v128.03c0,14.39,11.66,26.05,26.05,26.05h391.75c14.39,0,26.05-11.66,26.05-26.05V82.35c0-14.39-11.66-26.05-26.05-26.05ZM452.91,202.46c0,4.37-3.54,7.92-7.92,7.92H69.08c-4.37,0-7.92-3.54-7.92-7.92v-112.19c0-4.37,3.54-7.92,7.92-7.92h375.91c4.37,0,7.92,3.54,7.92,7.92v112.19Z"/>
  <path d="M1547.44,82.35h272.45c7.19,0,13.03-5.83,13.03-13.03s-5.83-13.03-13.03-13.03h-280.45c-14.39,0-26.05,11.66-26.05,26.05v340c0,14.39,11.66,26.05,26.05,26.05h280.45c7.19,0,13.03-5.83,13.03-13.03s-5.83-13.03-13.03-13.03h-272.45c-4.42,0-8-3.58-8-8V90.35c0-4.42,3.58-8,8-8Z"/>
  <path d="M1343.77,123.77h-312.58c-7.19,0-13.03,5.83-13.03,13.03s5.83,13.03,13.03,13.03h312.58c7.19,0,13.03-5.83,13.03-13.03s-5.83-13.03-13.03-13.03Z"/>
  <path d="M1343.77,56.3h-312.58c-7.19,0-13.03,5.83-13.03,13.03s5.83,13.03,13.03,13.03h312.58c7.19,0,13.03-5.83,13.03-13.03s-5.83-13.03-13.03-13.03Z"/>
  <path d="M465.94,268.27H48.14c-7.19,0-13.03,5.83-13.03,13.03s5.83,13.03,13.03,13.03h195.87v141.05c0,7.19,5.83,13.03,13.03,13.03h0c7.19,0,13.03-5.83,13.03-13.03v-141.05h195.87c7.19,0,13.03-5.83,13.03-13.03s-5.83-13.03-13.03-13.03Z"/>
  <path d="M1472.81,250.54h-41.05V61.54c0-5.49-4.45-9.94-9.94-9.94h-6.17c-5.49,0-9.94,4.45-9.94,9.94v372.22c0,5.49,4.45,9.94,9.94,9.94h6.17c5.49,0,9.94-4.45,9.94-9.94v-157.16h41.05c5.49,0,9.94-4.45,9.94-9.94v-6.17c0-5.49-4.45-9.94-9.94-9.94Z"/>
  <path d="M1951.86,250.54h-37.96V64.62c0-7.19-5.83-13.03-13.03-13.03s-13.03,5.83-13.03,13.03v366.05c0,7.19,5.83,13.03,13.03,13.03s13.03-5.83,13.03-13.03v-154.08h37.96c7.19,0,13.03-5.83,13.03-13.03h0c0-7.19-5.83-13.03-13.03-13.03Z"/>
  <path d="M932.65,56.3h-402.96c-7.19,0-13.03,5.83-13.03,13.03s5.83,13.03,13.03,13.03h394.96c4.42,0,8,3.58,8,8v133.05c0,7.19,5.83,13.03,13.03,13.03h0c7.19,0,13.03-5.83,13.03-13.03V82.35c0-14.39-11.66-26.05-26.05-26.05Z"/>
  <path d="M945.67,268.27h-417.8c-7.19,0-13.03,5.83-13.03,13.03s5.83,13.03,13.03,13.03h195.87v141.05c0,7.19,5.83,13.03,13.03,13.03h0c7.19,0,13.03-5.83,13.03-13.03v-141.05h195.87c7.19,0,13.03-5.83,13.03-13.03s-5.83-13.03-13.03-13.03Z"/>
  <path d="M1182.2,191.23c-96.43,0-174.6,57.57-174.6,128.58s78.17,128.58,174.6,128.58,174.6-57.57,174.6-128.58-78.17-128.58-174.6-128.58ZM1290.24,389.81c-13.7,10.09-29.79,18.05-47.81,23.67-19.02,5.92-39.28,8.93-60.23,8.93s-41.21-3-60.23-8.93c-18.02-5.61-34.11-13.58-47.81-23.67-26.15-19.26-40.56-44.12-40.56-69.99s14.4-50.73,40.56-69.99c13.7-10.09,29.79-18.05,47.81-23.67,19.02-5.92,39.28-8.93,60.23-8.93s41.21,3,60.23,8.93c18.02,5.61,34.11,13.58,47.81,23.67,26.15,19.26,40.56,44.12,40.56,69.99s-14.4,50.73-40.56,69.99Z"/>
</svg>