<?xml version="1.0" encoding="UTF-8"?>
<svg id="design" xmlns="http://www.w3.org/2000/svg" version="1.1" viewBox="0 0 2000 500">
  <!-- Generator: Adobe Illustrator 30.0.0, SVG Export Plug-In . SVG Version: 2.1.1 Build 123)  -->
  <path d="M1389.79,154.94c-57.84,0-104.73,31.15-104.73,69.58v102.52c0,7.19,5.83,13.02,13.02,13.02h0c7.19,0,13.02-5.83,13.02-13.02v-63.98h157.36v63.98c0,7.19,5.83,13.02,13.02,13.02h0c7.19,0,13.02-5.83,13.02-13.02v-102.52c0-38.43-46.89-69.58-104.73-69.58ZM1311.11,237v-12.48h-.05c0-12.95,11.95-22.82,19.07-27.55,15.33-10.19,37.08-16.03,59.66-16.03s44.33,5.84,59.67,16.03c7.12,4.73,19.06,14.6,19.06,27.55h-.05v12.48h-157.36Z"/>
  <path d="M1823.99,154.94c-57.84,0-104.73,31.15-104.73,69.58v102.52c0,7.19,5.83,13.02,13.02,13.02h0c7.19,0,13.02-5.83,13.02-13.02v-63.98h157.36v63.98c0,7.19,5.83,13.02,13.02,13.02h0c7.19,0,13.02-5.83,13.02-13.02v-102.52c0-38.43-46.89-69.58-104.73-69.58ZM1745.31,237v-12.48h-.05c0-12.95,11.95-22.82,19.07-27.55,15.33-10.19,37.08-16.03,59.66-16.03s44.33,5.84,59.67,16.03c7.12,4.73,19.06,14.6,19.06,27.55h-.05v12.48h-157.36Z"/>
  <path d="M1629.58,159.94c-.74,0-1.47,0-2.2.05l-.04-.04h-92.59c-10.49,0-19,8.51-19,19v142.12c0,10.49,8.51,19,19,19h94.83c38.44,0,69.59-40.32,69.59-90.06s-31.15-90.07-69.59-90.07ZM1658.22,297.79c-4.7,6.08-14.67,16.28-28.64,16.28v-.05h-79.78c-4.42,0-8-3.58-8-8v-112.02c0-4.42,3.58-8,8-8h81.5c13.07.78,22.42,10.39,26.92,16.22,9.5,12.3,14.95,29.72,14.95,47.79s-5.45,35.48-14.95,47.78Z"/>
  <path d="M1234.2,236.98h-141.86v-64.01c0-7.19-5.83-13.03-13.03-13.03h0c-7.19,0-13.03,5.83-13.03,13.03v64.01s0,26.05,0,26.05v64.01c0,7.19,5.83,13.03,13.03,13.03h0c7.19,0,13.03-5.83,13.03-13.03v-64.01h141.86v64.01c0,7.19,5.83,13.03,13.03,13.03h0c7.19,0,13.03-5.83,13.03-13.03v-154.08c0-7.19-5.83-13.03-13.03-13.03h0c-7.19,0-13.03,5.83-13.03,13.03v64.01Z"/>
  <path d="M728.39,250.01c-7.19,0-13.02,5.83-13.02,13.02h0c0,7.19,5.83,13.03,13.02,13.03h43.81c4.42,0,8,3.58,8,8v21.96c0,4.42-3.58,8-8,8h-77.47s-47.37,0-47.37,0h-1.58v.05c-13.97,0-23.93-10.2-28.63-16.28-9.51-12.3-14.96-29.71-14.96-47.78s5.45-35.49,14.96-47.79c4.7-6.08,14.66-16.28,28.63-16.28v.05h121.4c7.19,0,13.02-5.83,13.02-13.02h0c0-7.19-5.83-13.02-13.02-13.02h-121.4c-38.43,0-69.59,40.33-69.59,90.07s31.16,90.06,69.59,90.06h141.5c10.48,0,18.98-8.5,18.98-18.98v-52.1c0-10.48-8.5-18.98-18.98-18.98h-58.88Z"/>
  <path d="M1015.72,224.56v50.92h.05c0,12.95-11.95,22.82-19.07,27.55-15.33,10.2-37.08,16.04-59.66,16.04s-44.33-5.84-59.67-16.04c-7.12-4.73-19.06-14.6-19.06-27.55h.05v-102.51c0-7.19-5.83-13.03-13.03-13.03h0c-7.19,0-13.03,5.83-13.03,13.03v102.51c0,38.44,46.89,69.59,104.73,69.59s104.73-31.15,104.73-69.59v-102.51c0-7.19-5.83-13.03-13.03-13.03h0c-7.19,0-13.03,5.83-13.03,13.03v51.59Z"/>
  <path d="M521.8,224.55v50.93h.05c0,12.95-11.94,22.82-19.06,27.55-15.34,10.2-37.09,16.04-59.67,16.04s-44.33-5.84-59.67-16.04c-7.12-4.73-19.06-14.6-19.06-27.55h.05v-102.52c0-7.19-5.83-13.02-13.02-13.02h0c-7.19,0-13.02,5.83-13.02,13.02v102.52c0,38.44,46.89,69.59,104.73,69.59s104.73-31.15,104.73-69.59v-102.52c0-7.19-5.83-13.02-13.02-13.02h0c-7.19,0-13.02,5.83-13.02,13.02v51.58Z"/>
  <path d="M243.85,154.93c-21.78,0-41.11,7.98-53.18,20.3-12.07-12.32-31.4-20.3-53.18-20.3-36.57,0-66.21,22.48-66.21,50.21v121.89c0,7.2,5.83,13.03,13.03,13.03h0c7.2,0,13.03-5.83,13.03-13.03v-121.89h-.06c0-6.86,5.71-12.21,9.1-14.78,7.9-5.99,19.24-9.43,31.11-9.43s23.21,3.44,31.1,9.43c3.24,2.45,8.58,7.42,9.06,13.82-.01.32-.01.64-.01.96v121.89c0,7.2,5.83,13.03,13.03,13.03h0c7.2,0,13.03-5.83,13.03-13.03v-121.89c0-.32,0-.64,0-.96.48-6.4,5.82-11.37,9.05-13.82,7.9-5.99,19.24-9.43,31.11-9.43s23.21,3.44,31.11,9.43c3.39,2.57,9.1,7.92,9.1,14.78h-.06v121.89c0,7.2,5.83,13.03,13.03,13.03h0c7.2,0,13.03-5.83,13.03-13.03v-121.89c0-27.73-29.64-50.21-66.21-50.21Z"/>
</svg>