<?xml version="1.0" encoding="UTF-8"?>
<svg id="design" xmlns="http://www.w3.org/2000/svg" version="1.1" viewBox="0 0 2000 500">
  <!-- Generator: Adobe Illustrator 30.0.0, SVG Export Plug-In . SVG Version: 2.1.1 Build 123)  -->
  <path d="M1502.43,346.25c-8.85,0-16.05-7.2-16.05-16.05v-64.1h-158.8v64.1c0,8.85-7.2,16.05-16.05,16.05s-16.05-7.2-16.05-16.05v-106.72c0-41.31,50.02-74.92,111.5-74.93h0c61.49,0,111.51,33.62,111.51,74.93v106.72c0,8.85-7.2,16.05-16.05,16.05ZM1486.39,233.97v-11.92c-.86-11.63-11.95-20.7-18.67-25.16-15.56-10.34-37.7-16.27-60.73-16.27s-45.17,5.93-60.72,16.27c-6.79,4.51-18.05,13.72-18.71,25.52l.02,1.07v10.49h158.8Z"/>
  <path d="M1974.95,346.25c-8.85,0-16.05-7.2-16.05-16.05v-64.1h-158.8v64.1c0,8.85-7.2,16.05-16.05,16.05s-16.05-7.2-16.05-16.05v-106.72c0-41.31,50.02-74.92,111.5-74.93h.01c61.49,0,111.51,33.62,111.51,74.93v106.72c0,8.85-7.2,16.05-16.05,16.05ZM1958.9,233.97v-11.91c-.85-11.64-11.95-20.71-18.67-25.18-15.56-10.34-37.7-16.27-60.73-16.27s-45.17,5.93-60.72,16.27c-6.79,4.51-18.05,13.73-18.71,25.52l.02,1.07v10.49h158.8Z"/>
  <path d="M1569.05,346.26c-12.28,0-22.28-9.99-22.28-22.28v-147.94c0-12.28,9.99-22.28,22.28-22.28h97.35c.46-.01.92-.01,1.36-.01,41.32,0,74.94,43.18,74.94,96.26s-33.62,96.25-74.94,96.25h-98.71ZM1584.71,185.88c-3.21,0-5.83,2.61-5.83,5.83v116.61c0,3.21,2.61,5.83,5.83,5.83h84.72c12.61-.78,21.74-10.21,26.16-15.92,9.56-12.38,15.04-29.95,15.04-48.21s-5.48-35.84-15.04-48.22c-4.33-5.61-13.47-15.12-26.12-15.91h-84.76Z"/>
  <path d="M1251.12,346.26c-8.86,0-16.06-7.21-16.06-16.06v-64.13h-142.67v64.13c0,8.86-7.21,16.06-16.06,16.06s-16.06-7.21-16.06-16.06v-160.38c0-8.86,7.21-16.06,16.06-16.06s16.06,7.21,16.06,16.06v64.13h142.67v-64.14c0-8.86,7.21-16.06,16.06-16.06s16.06,7.21,16.06,16.06v160.39c0,8.86-7.21,16.06-16.06,16.06Z"/>
  <path d="M614.11,346.27c-41.32,0-74.94-43.18-74.94-96.25s33.62-96.26,74.94-96.26h126.37c8.85,0,16.05,7.2,16.05,16.05s-7.2,16.05-16.05,16.05h-128.05c-12.59.78-21.72,10.21-26.14,15.92-9.56,12.37-15.05,29.95-15.05,48.22s5.49,35.84,15.05,48.21c4.47,5.79,13.78,15.38,26.62,15.95l1.21-.03h131.6c3.21,0,5.83-2.61,5.83-5.83v-22.86c0-3.21-2.61-5.83-5.83-5.83h-45.6c-8.85,0-16.05-7.21-16.05-16.06s7.2-16.05,16.05-16.05h1.08s60.22.01,60.22.01c12.27,0,22.26,9.98,22.26,22.26v54.23c0,12.27-9.98,22.26-22.26,22.26h-147.29Z"/>
  <path d="M920.46,351.46c-61.49,0-111.52-33.62-111.52-74.94v-106.71c0-8.86,7.21-16.06,16.06-16.06s16.06,7.21,16.06,16.06v108.13c.85,11.63,11.95,20.71,18.67,25.17,15.56,10.35,37.69,16.28,60.73,16.28s45.17-5.93,60.72-16.28c6.79-4.51,18.05-13.72,18.71-25.52l-.02-1.08v-50.56l-.02-2.44v-53.7c0-8.86,7.21-16.06,16.06-16.06s16.06,7.21,16.06,16.06v106.71c0,41.32-50.03,74.94-111.52,74.94Z"/>
  <path d="M402.37,351.46c-61.49,0-111.52-33.62-111.52-74.94v-106.72c0-8.85,7.2-16.05,16.05-16.05s16.05,7.2,16.05,16.05v108.14c.85,11.64,11.95,20.71,18.67,25.18,15.56,10.35,37.69,16.28,60.73,16.28s45.17-5.93,60.73-16.28c6.79-4.51,18.04-13.72,18.69-25.52l-.02-1.08v-54.58h.02v-52.14c0-8.85,7.2-16.05,16.05-16.05s16.05,7.2,16.05,16.05v106.72c0,41.32-50.03,74.94-111.52,74.94Z"/>
  <path d="M246.5,346.25c-8.86,0-16.06-7.21-16.06-16.06v-128.02c-.6-5.53-5.45-10-8.42-12.25-7.8-5.92-19.05-9.31-30.87-9.31s-23.07,3.39-30.87,9.31c-2.95,2.24-7.96,6.83-8.43,12.49v127.78c0,8.86-7.21,16.06-16.06,16.06s-16.06-7.21-16.06-16.06v-126.88c0-.31,0-.62,0-.93-.49-5.66-5.49-10.23-8.44-12.46-7.79-5.92-19.04-9.31-30.87-9.31s-23.07,3.39-30.87,9.31c-3.01,2.28-7.95,6.84-8.44,12.48l.02.91v126.88c0,8.86-7.21,16.06-16.06,16.06s-16.06-7.21-16.06-16.06v-126.88c0-30.2,32.04-54.77,71.42-54.77,21.72,0,41.74,7.31,55.36,20.13,13.62-12.82,33.64-20.13,55.36-20.13,39.39,0,71.43,24.57,71.43,54.77v126.88c0,8.86-7.21,16.06-16.06,16.06Z"/>
</svg>